# xmcd CD database file
#
# Track frame offsets:
#	150
#	12485
#	24995
#	37520
#	51052
#	63142
#	75120
#	88110
#	100707
#	110702
#	124502
#	137480
#	150585
#	164077
#	176632
#	185822
#	198155
#	212847
#	224660
#	237457
#
# Disc length: 3335 seconds
#
# Revision: 1
# Processed by: cddbd v1.5.1PL0 Copyright (c) Steve Scherf et al.
# Submitted via: CDex 1.51
#
DISCID=090d0514
DTITLE=Fontella Bass - The Classic RHYTHM+BLUES Collection: 1964-1966
DYEAR=2001
DGENRE=R&B
TTITLE0=Four Tops, The - I Can't Help Myself (Sugar Pie, Honey Bunch)
TTITLE1=Supremes, The - You Can't Hurry Love
TTITLE2=James Brown - I Got You (I Feel Good)
TTITLE3=Four Tops, The - Reach Out, I'll Be There
TTITLE4=Impressions, The - People Get Ready
TTITLE5=Martha and The Vandellas - Dancing in the Street
TTITLE6=Isley Brothers, The - This Old Heart of Mine (Is Weak for You)
TTITLE7=Marvin Gaye - I'll Be Doggone
TTITLE8=Lou Rawls - Love is a Hurtin' Thing
TTITLE9=Junior Walker and The All Stars - Shotgun
TTITLE10=Supremes, The - Back in My Arms Again
TTITLE11=Miracles, The - The Tracks of My Tears
TTITLE12=Jimmy Ruffin - What Becomes of the Broken Hearted
TTITLE13=Miracles, The - Ooo Baby Baby
TTITLE14=James Brown - Papa's Got a Brand New Bag
TTITLE15=Temptations, The - My Girl
TTITLE16=Ramsy Lewis Trio - The "in" Crowd
TTITLE17=Little Milton - We're Gonna Make It
TTITLE18=Mary Wells - My Guy
TTITLE19=Fontella Bass - Rescue Me
EXTD=YEAR: 2001
EXTT0=
EXTT1=
EXTT2=
EXTT3=
EXTT4=
EXTT5=
EXTT6=
EXTT7=
EXTT8=
EXTT9=
EXTT10=
EXTT11=
EXTT12=
EXTT13=
EXTT14=
EXTT15=
EXTT16=
EXTT17=
EXTT18=
EXTT19=
PLAYORDER=
